/* XPM */
static char * escape2_xpm[] = {
"64 64 25 1",
" 	c #4C7D09",
".	c #487601",
"+	c #467901",
"@	c #4B7C03",
"#	c #4E8105",
"$	c #4E8208",
"%	c #518206",
"&	c #507F04",
"*	c #426D02",
"=	c #558A0A",
"-	c #528408",
";	c #457501",
">	c #303030",
",	c #191101",
"'	c #2B1D00",
")	c #454545",
"!	c #140D00",
"~	c #211600",
"{	c #342300",
"]	c #2B2B2B",
"^	c #6A6A6A",
"/	c #0E0701",
"(	c #000000",
"_	c #507F08",
":	c #3F7100",
"  ........++@@++  @@......@@@@...@..@@++  ####@@..@@@@@@++@@..@@",
"  ........++@@++  @#......##@@......@@++  ##  @@..@@@@@@++@@..@@",
"@@@@@@..@@......$$..@@@###@@++@@##%%....%%++  @@++%%    &&..@@++",
"@@@@@@..@@......$$..@@####@@++@@##%%....%%++  @@++%%    &&..@@++",
"@@..%%**..++@@==..--++....@@@.@@%%;;  @@@@....  # ++....@@++##@@",
"@@..%%*;..++@@--..--++....@@@.@@%%;;  @@@@....  # ++....@@.+##@@",
"..++++@@%%@@# ##@@..&&%%@@....@@;;..;;##  @@....@@..@@++..++%%  ",
"..++++@@%%@@ ###@@..&&&% @....@@;;..;;##  @ @...@@@@@@++..++%%  ",
"  ++##..@.@@@@..++@@#@.@@@##@@++##+...##%%+...%%++@@@@##..++@.++",
"  ++##..@.@@@@..++@@@@@@@@##@@++##++..##%%++..%%++@@@@@#..++..++",
"..@@@@--@@..@@  ++  ##@@@@%%@@@@@@@@;;....@@++@@@@@@@@......@@##",
"..@@@@--@@..@@@ ++  ##@@@@%%@@@@@@@@;;....@@.+@@@@@@@@......@###",
"@@..@@++..++..++....@@..@@  ..@@##@@@@++@@..@@@@..@@@@++##++++..",
"@@..@@++++++..++....@@..@@  ..@@##@@@@++@@..@@@@..@@@@++  ++++..",
"@@++@@++..;;@@@@@@++@@..@@..  ##@@  ....++..##@@..##@@@@++;;;;@@",
"@@++@@++..;;@@@@@@++@@..@@..  ##@@@ ..@.++..##@@..##@@@@++;;;;@@",
"..++@@++@@%%@@@@......>>> ##,#  @@@@' ......  ##.+@@....%%++@@++",
"..++@@++@@%%@@@@.....>)>)>!!'',@@,,!' !....>>>##++@@....%%++@@++",
"..@@@@####  ##@@@@..@>)!>)>!!!,!,!!!!.,!;;>)))>+..@@  ..  @@.@%%",
"..#@@@##@#  ##@@@@..@!,,!)>!!!',!!!'!!,''>>).)>+..@@  ..  @@.@%%",
"@@++@@..  ..@@++'.@!,,,!!)>~~{'~~~!!,!,!!>>,,!>...',..@@@@++.@#@",
"@@++@@..  ..@@++''!!!!!!~>]~~~'~~~'~~~~!!>)!!!!!!!'...@@@@++..@@",
"##..%%  ..++..;!,,!!!!~~~>]~~~~{~~~~~''~~>)!!!!,'@@@@@##@@@@..@@",
"##..%%  ..++..;;!!!!!'~~~)]~~~~~~~~~~~~~~>)~!!!,!!@@@@##@@@@..@@",
"..@@##++..@#++--!!!!~'~{~)>^^^^^^^^^^^^^^>)~~'{!!!!!++..@ @@  ##",
"..@@##++..@#+!,,!!!~~~~{~))))))))))))>))))){{'{!!,,+++..@@@@  ##",
"@@  ++@@..@@@@!,!!!~~~~~~)>>>>>>]>>>>]]>>>){~~~~!!!@@@  @@@@@@##",
"@@  ++@@..@@@!!,!!~~~~~~~>>~~{~~~~'~~~~~~>)~~~~~~!!@@'@ @@@@@@##",
";;..++%%..@@@.!!,!~~~~~~~>>~~~~~'~~'~~~~'>)~'~~~{!!!'!;;..;;@@..",
";;..++%%..@@..!!,!~~'~~~~)>~~~~~~~''~~~~~]>~~'~~{!!!,.;;..;;@@..",
"%%@@##....##$$!!!~~~~~~~~)>^^^^^^^^^^^^^^>>~~'~~{!,!,...@@++  ..",
"%%@@##....#!$!!!!~~~~~~~~))>))>))))))))))))~~~~~{!!,....@@++  ..",
"##......##..'',!!~~~~~~~~>]]>>]]>>>]]>>>>]>~~~~~~!,!@@++&&@@@@@@",
"##......##.,!!,!!{~~~~,~~)>~~,,,~~~,,~{~~>)~~~~~~,!!!@++&&@@@@@@",
"##...@@@%&++;!!!,'~~~~,,,)>~,!!!,!,,~!!'~>),~~~~~!,!!@@@  @@@@.@",
"##...@@@&&++;!!!,,{~~~~!!)>~,,~!////!!!/'>),,~~~'!!!@!@@  @@@@..",
"@@@@++@@@@--..!!,!~~~!!/!)>^^^^^^^^^^^^^^>)!!!,~,!!!# ####@@@@++",
"@@@@++@@@@--..!',,~,,!!//)))))))))>)>))))))///!~!!,,  %##$@@@@++",
"..  @@++++##;;!,,,,,!//!()>>>>]>>>>>>>>>>>)!///,!!',,.@#####@@..",
"..  @@++++##;;!,!,!///((()>((((((((((((((>>(((//!!!%!.@@##@ @@..",
"@@..@@..@@@@.'',!!!/(((((>]((((((((((((((>)((((,,!!._!%%@@@@++@@",
"@@..@@..@@@@..++!!!!(((((>]((((((((((((((>)((((!!!..__%%@@##++@@",
"%%..#@@@@@@@....!!!!(((((>>^^^^^^^^^^^^^^>)(((~!!!##&&@@##@@@@@@",
"%%..#@@@@@@......!!!!!((())))>)))))))>>))))(((!!!.!$&&@@##@@@@@@",
"  @@  ++  ....%%! !!!!!(()>>>]>>>>>>>]>>>>)((!!!,!++@@@@@@@@@.@@",
" @..@@++  ....%%  '!!!!!!'!!(((((((((((((>)!,!!!,,!+@@@@@@@@..@@",
"##  @@  ##..%%@@%!,!..!!,!!,!!!!(''~!,!!!!,,!!!!!%%%@@......  ..",
"##  @@  ##..%%@@',!+.!..,,!,!!!!!!!!!!!!!!!!@,!!%%%%@@......  ..",
"@@@@..::..##@@.+'. '%%###!,!!!!,,,!!,,,!!!@..!@@@@@@..++    @@..",
"@@@@..::..##@@++..  %%####,@  %%@@%%@@.'!.....!@@@@@..++   @@@..",
"...@;;@@@@;;  ....%%....++++;+@.%%%%@@@@,'++%%.@..@@..##.@......",
"..@@;;@@@@;;  ....%%....++++;;..%%%%@@@@;;++%%@@..@@..##........",
"..++  ..%%++@@....##..@@##@@++++..@@@@@@++##++@@@@$$++@@..++@@@@",
"..++  ..%%++@#@@..##..@@##@@++++..@@@@@@++##++@@@@#$++@@..++@@@@",
"++@@@@##..@@##@@;;++ #......    ++@ ..@@@@..@@++@@..@@% @@++@@@@",
"++@@@@##.@@@##@@;;++ #......  ##++@ ..@@@@..@@++@@..@@  @@++@@@@",
";;..;;;;+.$$++........@@..# @@++..@@%%++##--@@@@++  @@..%%  ....",
";;..;;;;..$$++........@@..  @@++..@@%%++##--@@@@++  @@@@%%  ....",
"@@+.++..;;..%%@@..&&@@%%++..##@@%% @..++++@@%%@@@@++ ###%%..@ @@",
"@@..++..;;..%%@@..%%@@%%++..##@@%%  ..++++@@%%@@@@++ ###%%..@ @@",
"@@++..++..@@@@##..++...+@@++..++..@@..++@@@@%%++++@@++@@@@...+@@",
"@@++..++..@@@@##..++..++@@++..++..@@..++@@@@%%++++@@++@@@@..++@@",
"# ++@@  ++++  ..&&  @@@@..  .@@@@@..++##;;..@@%%....&%..++##;;@@",
"  ++@@  ++++  ..&&  @@....  ..@@@@..++##;;..@@%%....&&..++##;;@@"};
