/* XPM */
static char * ground2_xpm[] = {
"64 64 14 1",
" 	c #4C7D09",
".	c #487601",
"+	c #467901",
"@	c #4B7C03",
"#	c #4E8105",
"$	c #4E8208",
"%	c #518206",
"&	c #507F04",
"*	c #426D02",
"=	c #558A0A",
"-	c #528408",
";	c #457501",
">	c #3F7100",
",	c #507F08",
"  ........++@@++  @@......@@@@...@..@@++  ####@@..@@@@@@++@@..@@",
"  ........++@@++  @#......##@@......@@++  ##  @@..@@@@@@++@@..@@",
"@@@@@@..@@......$$..@@@###@@++@@##%%....%%++  @@++%%    &&..@@++",
"@@@@@@..@@......$$..@@####@@++@@##%%....%%++  @@++%%    &&..@@++",
"@@..%%**..++@@==..--++....@@@.@@%%;;  @@@@....  # ++....@@++##@@",
"@@..%%*;..++@@--..--++....@@@.@@%%;;  @@@@....  # ++....@@.+##@@",
"..++++@@%%@@# ##@@..&&%%@@....@@;;..;;##  @@....@@..@@++..++%%  ",
"..++++@@%%@@ ###@@..&&&% @....@@;;..;;##  @ @...@@@@@@++..++%%  ",
"  ++##..@.@@@@..++@@#@.@@@##@@++##+...##%%+...%%++@@@@##..++@.++",
"  ++##..@.@@@@..++@@@@@@@@##@@++##++..##%%++..%%++@@@@@#..++..++",
"..@@@@--@@..@@  ++  ##@@@@%%@@@@@@@@;;....@@++@@@@@@@@......@@##",
"..@@@@--@@..@@@ ++  ##@@@@%%@@@@@@@@;;....@@.+@@@@@@@@......@###",
"@@..@@++..++..++....@@..@@  ..@@##@@@@++@@..@@@@..@@@@++##++++..",
"@@..@@++++++..++....@@..@@  ..@@##@@@@++@@..@@@@..@@@@++  ++++..",
"@@++@@++..;;@@@@@@++@@..@@..  ##@@  ....++..##@@..##@@@@++;;;;@@",
"@@++@@++..;;@@@@@@++@@..@@..  ##@@@ ..@.++..##@@..##@@@@++;;;;@@",
"..++@@++@@%%@@@@......##  ## #  @@@@  ......  ##.+@@....%%++@@++",
"..++@@++@@%%@@@@......##       @@@@@  ......  ##++@@....%%++@@++",
"..@@@@####  ##@@@@..@@#@@@..@@  ++%%..@@;;##..++..@@  ..  @@.@%%",
"..#@@@##@#  ##@@@@..@@##@@..@@  ++%%..@@;;##..++..@@  ..  @@.@%%",
"@@++@@..  ..@@++..@@..++##%%@@##++..##@@++##..........@@@@++.@#@",
"@@++@@..  ..@@++..@@..++#@%%###$++..##@@++##..........@@@@++..@@",
"##..%%  ..++..;;....@@..++..##@ ##%&@@..##..;;%%@@@@@@##@@@@..@@",
"##..%%  ..++..;;....@@..++.@##@ # &&@@..##..;;%%@@@@@@##@@@@..@@",
"..@@##++..@#++--@@@@  ++..@@@@..++++..  ;;..>>##..++++..@ @@  ##",
"..@@##++..@#++--@@@@  ++..@@@@@@++++..  ;;..>>##@.++++..@@@@  ##",
"@@  ++@@..@@@@@@@@  ## #..##++..  ..>>@@++..@@@@..@@@@  @@@@@@##",
"@@  ++@@..@@@@@@@@  ### ..##++..  ..>>@@++..@@@@..@@@@@ @@@@@@##",
";;..++%%..@@@.--##@@@@@@  ++@@..@@    ..++@@@@..@@++..;;..;;@@..",
";;..++%%..@@..--##@@@@@@  ++@@..@@    ..++@@@@..@@++..;;..;;@@..",
"%%@@##....##$$++@@@@++@@;;..@@@@@@  @@##..@@..++@@@@....@@++  ..",
"%%@@##....##$$++@@@@++@@;;..@@@@@@  @@# ..@@..++@@@@....@@++  ..",
"##......##..  @@@@#   @@##@@....++##++@@    @@@@@...@@++&&@@@@@@",
"##......##..  @@@@    @@ #@@....++##++@@ #  @@@@...@@@++&&@@@@@@",
"##...@@@%&++;;  ;+........  ##..##@@@@....##..  ....@@@@  @@@@.@",
"##...@@@&&++;;@ ++..@@....   #..##@@@@....##..  ....@@@@  @@@@..",
"@@@@++@@@@--..++@@  @@# @@..@@..  ..@@&&@@..@.@@..@@# ####@@@@++",
"@@@@++@@@@--..++@@  @@  @@..@@..  ..@@&&@@....@@..@.  %##$@@@@++",
"..  @@++++##;;..@@&%@@++&&....++@@++%%@@%%@@@@..@@%%..@#####@@..",
"..  @@++++##;;..@@%&@@++&&....++@@++%%@@%%@@@@..@@%%..@@##@ @@..",
"@@..@@..@@@@..++@@@@@@@@++%%%%@@@@++%%@@##..++@@....,,%%@@@@++@@",
"@@..@@..@@@@..++@@@@@@@@++%%%%@@@@++%%@@##..++@@....,,%%@@##++@@",
"%%..#@@@@@@@......++@@@@;;@@....--@@#   @.@@++++..##&&@@##@@@@@@",
"%%..#@@@@@@.......++@@@@;;@@....--@@#   @.@@++++..$$&&@@##@@@@@@",
"  @@  ++  ....%%  @@@@....##@@ &..@@.+@@..@@##++# ++@@@@@@@@@.@@",
" @..@@++  ....%%  ##@@..@.##@@  ..@@.+@@..@@##++ #++@@@@@@@@..@@",
"##  @@  ##..%%@@%%++....@@####%%..%%++@@++..@@;;%%%%@@......  ..",
"##  @@  ##..%%@@%%++....@@####%%..%%++@@++..@@;;%%%%@@......  ..",
"@@@@..>>..##@@.+..  %%####@@  %%@@%%@@....@...@@@@@@..++    @@..",
"@@@@..>>..##@@++..  %%####@@  %%@@%%@@........@@@@@@..++   @@@..",
"...@;;@@@@;;  ....%%....++++;+@.%%%%@@@@+;++%%.@..@@..##.@......",
"..@@;;@@@@;;  ....%%....++++;;..%%%%@@@@;;++%%@@..@@..##........",
"..++  ..%%++@@....##..@@##@@++++..@@@@@@++##++@@@@$$++@@..++@@@@",
"..++  ..%%++@#@@..##..@@##@@++++..@@@@@@++##++@@@@#$++@@..++@@@@",
"++@@@@##..@@##@@;;++ #......    ++@ ..@@@@..@@++@@..@@% @@++@@@@",
"++@@@@##.@@@##@@;;++ #......  ##++@ ..@@@@..@@++@@..@@  @@++@@@@",
";;..;;;;+.$$++........@@..# @@++..@@%%++##--@@@@++  @@..%%  ....",
";;..;;;;..$$++........@@..  @@++..@@%%++##--@@@@++  @@@@%%  ....",
"@@+.++..;;..%%@@..&&@@%%++..##@@%% @..++++@@%%@@@@++ ###%%..@ @@",
"@@..++..;;..%%@@..%%@@%%++..##@@%%  ..++++@@%%@@@@++ ###%%..@ @@",
"@@++..++..@@@@##..++...+@@++..++..@@..++@@@@%%++++@@++@@@@...+@@",
"@@++..++..@@@@##..++..++@@++..++..@@..++@@@@%%++++@@++@@@@..++@@",
"# ++@@  ++++  ..&&  @@@@..  .@@@@@..++##;;..@@%%....&%..++##;;@@",
"  ++@@  ++++  ..&&  @@....  ..@@@@..++##;;..@@%%....&&..++##;;@@"};
