/* XPM */
static char * item_xpm[] = {
"64 64 21 1",
" 	c #4C7D09",
".	c #487601",
"+	c #467901",
"@	c #4B7C03",
"#	c #4E8105",
"$	c #4E8208",
"%	c #518206",
"&	c #507F04",
"*	c #426D02",
"=	c #558A0A",
"-	c #528408",
";	c #457501",
">	c #77D300",
",	c #233C00",
"'	c #000000",
")	c #A60100",
"!	c #E50300",
"~	c #B69800",
"{	c #FFD902",
"]	c #3F7100",
"^	c #507F08",
"  ........++@@++  @@......@@@@...@..@@++  ####@@..@@@@@@++@@..@@",
"  ........++@@++  @#......##@@......@@++  ##  @@..@@@@@@++@@..@@",
"@@@@@@..@@......$$..@@@###@@++@@##%%....%%++  @@++%%    &&..@@++",
"@@@@@@..@@......$$..@@####@@++@@##%%....%%++  @@++%%    &&..@@++",
"@@..%%**..++@@==..--++....@@@.@@%%;;  @@@@....  # ++....@@++##@@",
"@@..%%*;..++@@--..--++....@@@.@@%%;;  @@@@....  # ++....@@.+##@@",
"..++++@@%%@@# ##@@..&&%%@@....@@;;..;;##  @@....@@..@@++..++%%  ",
"..++++@@%%@@ ###@@..&&&% @....@@;;..;;##  @ @...@@@@@@++..++%%  ",
"  ++##..@.@@@@..++@@#@.@@@##@@++##+...##%%+...%%++@@@@##..++@.++",
"  ++##..@.@@@@..++@@@@@@@@##@@++##++..##%%++..%%++@@@@@#..++..++",
"..@@@@--@@..@@  ++ >##@@@@%%@@@@@@@@;;....@@++@@@@@@@@......@@##",
"..@@@@--@@..@@@ ++ ,##@@@@%%@@@@@@@@;;,...@@.+@@@@@@@@......@###",
"@@..@@++..++..++....,,..'''''''@,,@@@,++@@..@@@@..@@@@++##++++..",
"@@..@@++++++..++....>,.')))!!!!'#,@@,,++@@..@@@@..@@@@++  ++++..",
"@@++@@++..;;@@@@@@++>,'))!!!!!!!,, ,>,..++..##@@..##@@@@++;;;;@@",
"@@++@@++..;;@@>@,@++,'))!!!!!!!!'>>,,.@.++..##@@..##@@@@++;;;;@@",
"..++@@++@@%,,@@,,...,'))!!!!!!!!',>,,,,,....  ##.+@@....%%++@@++",
"..++@@++@@%%,,,,,,.,,'))!!!!!!!!!'>,>>,.....  ##++@@....%%++@@++",
"..@@@@####  #,>>,,,,>'))!!!!!!!!!','''''''##..++..@@  ..  @@.@%%",
"..#@@@##@# ,,#,>>>,,,'))!!!!!!!!!''))))!!!'#..++..@@  ..  @@.@%%",
"@@++@@.. >,.@@++,,>>>'))!!!!!!!!!'))!!!!!!!'..........@@@@++.@#@",
"@@++@@..  ..@@''''''','))!)))!!!'))!!!!!!!!'..........@@@@++..@@",
"##..%%  ..++''))))!!!'')))))))))'))!!!!!!!!';;%%@@@@@@##@@@@..@@",
"##..%%  ..++'))!!!!!!!!'))'''))'))!!!!!!!!!';,%%@@@@@@##@@@@..@@",
"..@@##++..@'))!!!!!!!!!!''~~~'''))!!!!!!!!!',>##..++++..@ @@  ##",
"..@@##++..@'))!!!!!!!!!'~~~{{{{'))!!!!!!!!!']]##@.++++..@@@@  ##",
"@@  ++@@..@'))!!!!!!!!'~{{{{{{{{'))!!!!!!!!',@@@..@@@@  @@@@@@##",
"@@  ++@@..@'))!!!!!!!'~~{{{{{{{{{'))!!!!!!',,@@@..@@@@@ @@@@@@##",
";;..++%%..@')))!!!!!!'~{{{{{{{{{{')))!!)))'>>,,,@@++..;;..;;@@..",
";;..++%%..@@')))!!!!!'~{{{{{{{{{{'))))))''>,@@..@@++..;;..;;@@..",
"%%@@##.,,.#,,''))))))'~~{{{{{{{{{''''''',>,,..++@@@@....@@++  ..",
"%%@@##...,,>>>>')))))'~~{{{{{{{{~'!!!!!!'',,,,++@@@@....@@++  ..",
"##......##.,,,,,'''''''~~~{{{{~~')!!!!!!!' ,,@@@@...@@++&&@@@@@@",
"##......##..  ,,,>,')))''~~~~~~')!!!!!!!!!' @,,>...@@@++&&@@@@@@",
"##...@@@%&++;,,,,>'))!!!!''''''))!!!!!!!!!'#..  ....@@@@  @@@@.@",
"##...@@@&&++;,,,,,'))!!!!!!!!!'))!!!!!!!!!'#..  ....@@@@  @@@@..",
"@@@@++@@@@--,,>>@'))!!!!!!!!!!'))!!!!!!!!!'.@.@@..@@# ####@@@@++",
"@@@@++@@@@--,.>,@'))!!!!!!!!!!')))!!!!!!!)'...@@..@.  %##$@@@@++",
"..  @@++++##,;..'))!!!!!!!!!!!''))))))))))'@@@..@@%%..@#####@@..",
"..  @@++++#,,;..'))!!!!!!!!!!!'>'')))))))'@@@@..@@%%..@@##@ @@..",
"@@..@@..@@,,..++'))!!!!!!!!!!',,,,'''''''#..++@@....^^%%@@@@++@@",
"@@..@@..@@,@..++@'))!!!!!!!!!'>,@,>>%%@@##..++@@....^^%%@@##++@@",
"%%..#@@@@@@@.....')))!!!!!!))>,,,-,,,   @.@@++++..##&&@@##@@@@@@",
"%%..#@@@@@@.......'))))))))''>..,,@@#   @.@@++++..$$&&@@##@@@@@@",
"  @@  ++  ....%%  @'))))))'#@> &,,>@.+@@..@@##++# ++@@@@@@@@@.@@",
" @..@@++  ....%%  ##''''''##@,  ,.@@.+@@..@@##++ #++@@@@@@@@..@@",
"##  @@  ##..%%@@%%++....@@###,%%..%%++@@++..@@;;%%%%@@......  ..",
"##  @@  ##..%%@@%%++....@@####,%..%%++@@++..@@;;%%%%@@......  ..",
"@@@@..]]..##@@.+..  %%####@@  %%@@%%@@....@...@@@@@@..++    @@..",
"@@@@..]]..##@@++..  %%####@@  %%@@%%@@........@@@@@@..++   @@@..",
"...@;;@@@@;;  ....%%....++++;+@.%%%%@@@@+;++%%.@..@@..##.@......",
"..@@;;@@@@;;  ....%%....++++;;..%%%%@@@@;;++%%@@..@@..##........",
"..++  ..%%++@@....##..@@##@@++++..@@@@@@++##++@@@@$$++@@..++@@@@",
"..++  ..%%++@#@@..##..@@##@@++++..@@@@@@++##++@@@@#$++@@..++@@@@",
"++@@@@##..@@##@@;;++ #......    ++@ ..@@@@..@@++@@..@@% @@++@@@@",
"++@@@@##.@@@##@@;;++ #......  ##++@ ..@@@@..@@++@@..@@  @@++@@@@",
";;..;;;;+.$$++........@@..# @@++..@@%%++##--@@@@++  @@..%%  ....",
";;..;;;;..$$++........@@..  @@++..@@%%++##--@@@@++  @@@@%%  ....",
"@@+.++..;;..%%@@..&&@@%%++..##@@%% @..++++@@%%@@@@++ ###%%..@ @@",
"@@..++..;;..%%@@..%%@@%%++..##@@%%  ..++++@@%%@@@@++ ###%%..@ @@",
"@@++..++..@@@@##..++...+@@++..++..@@..++@@@@%%++++@@++@@@@...+@@",
"@@++..++..@@@@##..++..++@@++..++..@@..++@@@@%%++++@@++@@@@..++@@",
"# ++@@  ++++  ..&&  @@@@..  .@@@@@..++##;;..@@%%....&%..++##;;@@",
"  ++@@  ++++  ..&&  @@....  ..@@@@..++##;;..@@%%....&&..++##;;@@"};
