/* XPM */
static char * player_xpm[] = {
"64 64 41 1",
" 	c #4C7D09",
".	c #487601",
"+	c #467901",
"@	c #4B7C03",
"#	c #4E8105",
"$	c #000000",
"%	c #4E8208",
"&	c #518206",
"*	c #507F04",
"=	c #E3E5E7",
"-	c #426D02",
";	c #558A0A",
">	c #528408",
",	c #B9B9B9",
"'	c #457501",
")	c #838383",
"!	c #7A7A7A",
"~	c #250F02",
"{	c #3A1700",
"]	c #6F8DB7",
"^	c #660303",
"/	c #6F350F",
"(	c #FFC8A7",
"_	c #FFB27F",
":	c #7F0000",
"<	c #FFB78E",
"[	c #737373",
"}	c #535353",
"|	c #2B2B2B",
"1	c #D8956C",
"2	c #CECECE",
"3	c #8C8C8C",
"4	c #6A6A6A",
"5	c #AFAFAF",
"6	c #4E4E4E",
"7	c #EA0000",
"8	c #D40000",
"9	c #BC0000",
"0	c #B40000",
"a	c #A60100",
"b	c #3F7100",
"  ........++@@++  @@......@@@@...@..@@++  ####@@..@@@@@@++@@..@@",
"  ........++@@++  @#.....$$$@@......@@++  ##  @@..@@@@@@++@@..@@",
"@@@@@@..@@......%%..@@@###$$$$$@##&&....&&++  @@++&&    **..@@++",
"@@@@@@..@@......%%..@@####@@$$=$$$&&....&&++  @@++&&    **..@@++",
"@@..&&--..++@@;;..>>++....@@@.$=,,$$$$@@@@....  # ++....@@++##@@",
"@@..&&-'..++@@>>..>>++....@@@.@$$=,,)!$$$@....  # ++....@@.+##@@",
"..++++@@&&@@# ##@@..**&&@@....@@'$$=,,!))$$$....@@..$$++..++&&  ",
"..++++@@&&@@ ###@@..***& @....@@''.$=,,,))))$$$.@@@$~~$+..++&&  ",
"  ++##..@.@@@@..++@@#@.@@@##@@++##+.$$==,,)))))$$$${{~$#..++@.++",
"  ++##..@.@@@@..++@@@@@@@@##@@++##++..$$=,,,)!]!)${{~$@#..++..++",
"..@@@@>>@@..@@  ++  ##@@@@&&@@@@@@@@''..$==,,)!))${{~$......@@##",
"..@@@@>>@@..@@@ ++$$$$$@@@&&@@@@@@@@''..$$$=,,))${{~$@......@###",
"@@..@@+$$$$+..++.$$^^^$$@@  ..@@##@@@@+$$^^$=,,${{~$/$$$$#++++..",
"@@..@@$(___$$.++.$^::::$$@  ..@@##@@@@$$::::$$${{~$$$___($++++..",
"@@++@@$(___$_$@@$$^:::::$@..$$$$$$$ ..$:::::^$${~$$_$___($''''@@",
"@@++@@$((____$@@$^::::::$$.$$__((($$.$$:::::$${~$$$____(($''''@@",
"..++@@$(((___$@@$^:::::::$#$_____(($ $:::::$${~$$+$___((($++@@++",
"..++@@$(((((($@@$^:::::::$$$_____(($$$:::::$~~$$++$(((((($++@@++",
"..@@@$$$$$$$$$@@$^::::$$$__$__<_((($(($$$:::$$$+..$$$$$$$$$@.@&&",
"..#@@$[[[[[[}|$@$^::$$______$___(($(__((($$::^$+.$|}[[[[[[$@.@&&",
"@@++@$[[[[[[}|$+$^:$________$$_((($(____((($:^$..$|}[[[[[[$+.@#@",
"@@++@$[[[[[[}|$+$$$_____$$___$_(($(__$$___(($$$..$|}[[[[[[$+..@@",
"##..$[[[[[[[}|$'.$_____$$$_111111111_$$$___(1$&&@$|}[[[[[[[$..@@",
"##..$[[[[[[[}|$'$1____$$$$1$$$$$$$$$1$$$$___11$&@$|}[[[[[[[$..@@",
"..@@$[[[[[[[}|$$$1___$$__1$$$$$$$$$$$1__$$_11$$$.$|}[[[[[[[$  ##",
"..@@$[[}}[[[}|$$$$1_____1$$$$$$$$$$$$$1___11$$$}$$|}[[[}}[[$  ##",
"@@  $|}|}}[[}|$2$$$11__1$$$$3333333$$$$1111$$$$4}$|}[[}}|}|$@@##",
"@@  $$[$[[[}|$25$$$$$11$$$$333333333$$$$11$$$$3346$|}[[[$[$$@@##",
"''.$[[[[[[[}|$253$$$$$$$$$33333333333$$$$$$$$33346$|}[[[[[[[$@..",
"''.$[[[[[[}|$253333$$$$$333333333333333$$$$33333346$|}[[[[[[$@..",
"&&@$[[[[[[}|$25333333333333333333333333333333333346$|}[[[[[[$ ..",
"&&@$[[[[[[}|$2533333333333333$$$$$$3333333333333346$|}[[[[[[$ ..",
"##.$[[[[[}|$253333333333333$$$$$$$$$$333333333333346$|}[[[[[$@@@",
"##.$[[[[[}|$253333333333}$$$$$7777$$$$$3333333333346$|}[[[[[$@@@",
"##.$[[[[[}|$253333333333}$$$88888777$$$$333333333346$|}[[[[[$@.@",
"##.$[[[[[}|$25333333333}$$$9990000887$$$333333333346$|}[[[[[$@..",
"@@@$[[[[[}|$25333333333}$$009999900088$$333333333346$|}[[[[[$@++",
"@@@@$[[[[}|$25333333346$$$900009999088$$$3333333334}$|}[[[[$@@++",
"..  $[[[[}|$25333333346$$99900000999977$$3333333334}$|}[[[[$@@..",
"..  $[[[[}|$25333333346$$99999000009977$$3333333334}$|}[[[[$@@..",
"@@..@$[[[}|$25333333346$$999999990aa077$$3333333334}$|}[[[$@++@@",
"@@..@$[[[}|$25333333346$$90000999999087$$33333333346$|}[[[$#++@@",
"&&..#@$[[}|$25333333346$$9990a099999988$$33333333346$|}[[$@@@@@@",
"&&..#@@$[}|$25333333346$$999900a0999977$$33333333346$|}[$#@@@@@@",
"  @@  ++$[}|$2533333346$$99999900009977$$3333333346$|}[$@@@@@.@@",
" @..@@++ $$|$2533333346$$00099999000077$$3333333346$|$$@@@@@..@@",
"##  @@  ##.$$25333333346$$900009990988$$3333333346$$$@......  ..",
"##  @@  ##..&$2533333346$$999000099977$$3333333346$&@@......  ..",
"@@@@..bb..##@@$533333346$$999999000977$$333333334$@@..++    @@..",
"@@@@..bb..##@@$253333346$$000999990087$$333333346$@@..++   @@@..",
"...@''@@@@''  .$25333346$$900099999977$$33333346$.@@..##.@......",
"..@@''@@@@''  ..$25533346$$0000099977$$33333346$..@@..##........",
"..++  ..&&++@@...$2253346$$9900000077$$3333446$@@@%%++@@..++@@@@",
"..++  ..&&++@#@@..$$25346$$9999000088$$3344}}$@@@@#%++@@..++@@@@",
"++@@@@##..@@##@@''++$2546$$9999999977$$44}}$$@++@@..@@& @@++@@@@",
"++@@@@##.@@@##@@''++ $$46$$$00000088$$$66$$.@@++@@..@@  @@++@@@@",
"''..''''+.%%++........@$$6$$00000088$$6$$#>>@@@@++  @@..&&  ....",
"''..''''..%%++........@@.$$$$900088$$$$+##>>@@@@++  @@@@&&  ....",
"@@+.++..''..&&@@..**@@&&++.$$778877$$.++++@@&&@@@@++ ###&&..@ @@",
"@@..++..''..&&@@..&&@@&&++.$$$7778$$$.++++@@&&@@@@++ ###&&..@ @@",
"@@++..++..@@@@##..++...+@@++$$$$$$$$..++@@@@&&++++@@++@@@@...+@@",
"@@++..++..@@@@##..++..++@@++.$$$$$$@..++@@@@&&++++@@++@@@@..++@@",
"# ++@@  ++++  ..**  @@@@..  .@@@@@..++##''..@@&&....*&..++##''@@",
"  ++@@  ++++  ..**  @@....  ..@@@@..++##''..@@&&....**..++##''@@"};
