/* XPM */
static char * wall2_xpm[] = {
"64 64 38 1",
" 	c #4C7D09",
".	c #487601",
"+	c #467901",
"@	c #4B7C03",
"#	c #000000",
"$	c #8C8C8C",
"%	c #4E8105",
"&	c #2B2B2B",
"*	c #507F04",
"=	c #454545",
"-	c #7A7A7A",
";	c #518206",
">	c #426D02",
",	c #8B969C",
"'	c #A2A2A2",
")	c #4E4E4E",
"!	c #626262",
"~	c #929292",
"{	c #6A6A6A",
"]	c #754C1D",
"^	c #442C11",
"/	c #593A15",
"(	c #457501",
"_	c #3D280E",
":	c #4F3312",
"<	c #291B07",
"[	c #1E150A",
"}	c #77562D",
"|	c #90693B",
"1	c #1C0C04",
"2	c #302210",
"3	c #875F2D",
"4	c #1D1D1D",
"5	c #211600",
"6	c #535353",
"7	c #5B5B5B",
"8	c #838383",
"9	c #AFAFAF",
"  ........++@@++#######...@@@@...@..@@++ #######..@@@@@@++@@..@@",
"  ........++@###$$$$$$##..%%@@......@@++##$$$$$$###@@@@@++@@..@@",
"@@@@@@..@@.##$$$$$$$$$#&################&#$$$$$$$$$##   **..@@++",
"@@@@@@..@##$$$$$$$$$$$#&=--------------=&#$$$$$$$$$$$## **..@@++",
"@@..;;>##$$$$$$$$$$$$$#&=--------------=&#$$$$$$$$$$$$$##@++%%@@",
"@@..;;#$$$$$$$$$$$$$$$#&=--------------=&#$$$$$$$$$$$$$$$#.+%%@@",
"..+++#$#$$$$$$$$$$$$$$#&=--------------=&#$$$$$$$$$$$$$$#$#+;;  ",
"..+++#$$#$$$$$$$$$$,,'#)=--------------=)#'''$$$$$$$$$$#$$#+;;  ",
"  ++#$$$$#$$$$$$$,,,,'#)!~~~~~~~~~~~~~~!)#''',,$$$$$$$#$$$$#@.++",
"  ++#$$$$$#$$$$''''###=#!~~~~~~~~~~~~~~!#=###,,''$$$$#$$$$$#..++",
"..@#$$$$$$$#$''''##=====################=====##''''$#$$$$$$$#@%%",
"..@#$$$$$$$$#''##{==={{{{{{{{{{{{{{{{{{{{{===={##''#$$$$$$$$#%%%",
"@@.#$$$$$$$''##=={{{{====={============{=={{{{===##''$$$$$$$#+..",
"@@#$$$$$$$$''##=={==={===={============{====={{==##''$$$$$$$$#..",
"@@#$$$$$$$''#=#={===={===={============{======={=#=#',$$$$$$$#@@",
"@@#$$$$$$$''#={#======{{{{{{{{{{{{{{{{{{{=======#{=#',$$$$$$$#@@",
"..#$$$$$$''#=={#==={{{============{======{{{{===#{={#',$$$$$$#++",
"..#$$$$$$,,#{{=#=={=={============{=========={==#={{#''$$$$$$#++",
"..#$$$$$$''#={==#{===={==========={========={={#=={=#,,$$$$$$#;;",
"..##########={==#=====###################=={===#=={=##########;;",
"@@#&&&&&&))#={=={#=###]]]]]]]]]]]]]]]]]]]###==#==={=#))&&&&&&#%@",
"@@+#====!!#=={={###^^^]^^^^^^^^^^^^^]^^^^^^^####=={==#!!====#.@@",
"%%.########={=={#////^]////////////^]//////////#={={=########.@@",
"%%.#~~----#={==#/////^]////////////^]///////////#=={=#----~~#.@@",
"..@#~~----#={{=#]]]]]]]]]]]]]]]]]]]]]]]]]]]]]]]]#=={=#----~~# %%",
"..@#~~----#={={#^^^^^^^^]^^^^^^^^^^^^^^^^^^^^]^^#={{=#----~~# %%",
"@@ #~~----#{{=#////////^]///////////////////^]///#={=#----~~#@%%",
"@@ #~~----#={=#////////^]///////////////////^]///#={=#----~~#@%%",
"((.#~~----#={=#]]]]]]]]]]]]]]]]]]]]]]]]]]]]]]]]]]#={=#----~~#@..",
"((.#~~----#={=#^^]^^^^^^^^^^^]^^^^^^^^^^^^]^^^^^^#={{#----~~#@..",
";;@#~~----#={=#/^]//////////^]///////////^]//////#={=#----~~# ..",
";;@########={=#_^]//////////^]///////////^]/////_#={=######## ..",
"%%#''$$$$$$#{=#:]]]]]]]]]]]]]]]]]]]]]]]]]]]]]]]]:#={#$$$$$$,,#@@",
"%%#''$$$$$$#{{#<<^^^]^^^^^^^^^^^^^]^^^^^^^^^^^]<<#{{#$$$$$$''#@@",
"%%#''$$$$$$#{=#___/^]////////////^]//////////^:__#={#$$$$$$''#.@",
"%%#''$$$$$$$#=#[___<]////////////^]/////////_<:_[#=#$$$$$$$''#..",
"@}#''$$$$$$$#=#<:::::]]]]]]]]]]]]]]]]]]]]]]:::::<#=#$$$$$$$''#}+",
"@|#''$$$$$$$$##11<<<<<<<<^^]^^^^^^^^^^^<<<:<<<<11##$$$$$$$$''#}+",
"..2#',$$$$$$$##[[[________<:_____________<:___[[[##$$$$$$$''#[..",
"..2#''$$$$$$#$$##[[_______<:_____________<:_[[[##$$#$$$$$$''#2..",
"@@}#''$$$$$#$$$$$##<<:::::::::::::::::::::<<<##$$$$$#$$$$$''#}@@",
"@@..#''$$$#$$$$$$$$###111:<<<<<<<<<<<:<111###$$$$$$$$#$$$,,#}+@@",
";;.}#''$$#$$$$$$$$$$$$#[1<[[[[[[[[[[1<[[[#$$$$$$$$$$$$#$$''#3@@@",
";;.}[#,,#$$$$$$$$$$$$$##1<[[[[[[[[[[1<[[##$$$$$$$$$$$$$#,'#3@@3@",
" 2222#,#,$$$$$$$$$$$$$#4################4#$$$$$$$$$$$$$,#'#5}}3@",
" @.|2[#''''$$$$$$$$$$$#4----------------4#$$$$$$$$$$$''''#[[[2}@",
"%%}||[###''''$$$$$$$$$#4----------------4#$$$$$$$$$''''###}. 3..",
"%%  @}3#6##''','$$$$$$#4----------------4#$$$$$$',,,'##6#[[2  ..",
"@@@@2[[#-66##'''''',,'#4----------------4#,,,'''',,##=6-#[}333..",
"@@@@..}}#--=6###''',,'#=----------------=#''''''###66!-#}} @@@3.",
"...@22[[#--!-#))#######='~~~~~~~~~~~~~~'=#######)=#--!-#}333....",
"..@@33}2[#7!-#--{7===))#'~~~~~~~~~~~~~~'#))))=7{--#--!#3}22.....",
"..++  }}[#-!!#!!!!)77--=################=--!!)77!7#77-#[23++}}@@",
"..+} }..[[#---#$$$!$$!77666))))))))))6667!!$$7$$$#---#[[[22223}@",
"+22222222[#---#$$$!$$$$$----6-####-6----$$$$$7$$$#---#[ 22}}33@}",
"++@@@33322[#--#$$$$!$$$$$$$$!#::::#!$$$$$$$$!$$$$#--#[[ [}3+@@@@",
"(}.33}2(22[#!78#$$$!$$$$$$$$#<<<<:<#$$$$$$$$!$$$#8!!#}}3;;  ....",
"((..(((}3333#87#!!!!!7$$$$$$#___<:_#$$$$$$!!!!7!#!8#[2}@;;  ....",
"@@+.++..((3[[#'8#~~~~~!77!!#____<:__#!777!~~~~~#8'#+3%%};}3}3 @@",
"@@..}}.}}222[[#'#9999~~~7~~#____<:__#~~7~~~9999#'#[[[2222}}.@ @@",
"@@++..}+.33}@3}#####9999-99#::::::::#99-9999#####[[2233}}3...+@@",
"@@++.3}}..@@@@3333}[[#######<<<<<<<<########2[[[3}}}++@@@@3.++@@",
"% ++@@  +++}}22222}}3[[3[[[[.@3322}}}}%[[[[2@@222322}}..++%%((@@",
"  ++@@  ++++ }3.**  }}....3[[.@222.2++%%(3[[}@;;.}}.**..++%%((@@"};
